<?xml version="1.0" encoding="UTF-8" standalone="no"?>
<!DOCTYPE svg PUBLIC "-//W3C//DTD SVG 1.1//EN"
 "http://www.w3.org/Graphics/SVG/1.1/DTD/svg11.dtd">
<!-- Generated by graphviz version 14.1.5 (20260411.2331)
 -->
<!-- Title: albs_provenance Pages: 1 -->
<svg width="1865pt" height="285pt"
 viewBox="0.00 0.00 1865.00 285.00" xmlns="http://www.w3.org/2000/svg" xmlns:xlink="http://www.w3.org/1999/xlink">
<g id="graph0" class="graph" transform="scale(1 1) rotate(0) translate(4 281)">
<title>albs_provenance</title>
<polygon fill="white" stroke="none" points="-4,4 -4,-281 1860.75,-281 1860.75,4 -4,4"/>
<!-- src:openssl -->
<g id="node1" class="node">
<title>src:openssl</title>
<polygon fill="none" stroke="black" points="102.25,-197 0,-197 0,-156 102.25,-156 102.25,-197"/>
<text xml:space="preserve" text-anchor="middle" x="51.12" y="-179.7" font-family="Times,serif" font-size="14.00">source_package</text>
<text xml:space="preserve" text-anchor="middle" x="51.12" y="-163.2" font-family="Times,serif" font-size="14.00">openssl</text>
</g>
<!-- repo:git.almalinux.org/rpms/openssl -->
<g id="node2" class="node">
<title>repo:git.almalinux.org/rpms/openssl</title>
<polygon fill="none" stroke="black" points="374.75,-197 188.5,-197 188.5,-156 374.75,-156 374.75,-197"/>
<text xml:space="preserve" text-anchor="middle" x="281.62" y="-179.7" font-family="Times,serif" font-size="14.00">git_repository</text>
<text xml:space="preserve" text-anchor="middle" x="281.62" y="-163.2" font-family="Times,serif" font-size="14.00">git.almalinux.org/rpms/openssl</text>
</g>
<!-- src:openssl&#45;&gt;repo:git.almalinux.org/rpms/openssl -->
<g id="edge1" class="edge">
<title>src:openssl&#45;&gt;repo:git.almalinux.org/rpms/openssl</title>
<path fill="none" stroke="black" d="M102.55,-176.5C124.42,-176.5 150.88,-176.5 176.64,-176.5"/>
<polygon fill="black" stroke="black" points="176.5,-180 186.5,-176.5 176.5,-173 176.5,-180"/>
<text xml:space="preserve" text-anchor="middle" x="145.38" y="-179.7" font-family="Times,serif" font-size="14.00">stored_in</text>
</g>
<!-- commit:openssl:abc123 -->
<g id="node3" class="node">
<title>commit:openssl:abc123</title>
<polygon fill="none" stroke="black" points="540.75,-197 461,-197 461,-156 540.75,-156 540.75,-197"/>
<text xml:space="preserve" text-anchor="middle" x="500.88" y="-179.7" font-family="Times,serif" font-size="14.00">git_commit</text>
<text xml:space="preserve" text-anchor="middle" x="500.88" y="-163.2" font-family="Times,serif" font-size="14.00">abc123</text>
</g>
<!-- repo:git.almalinux.org/rpms/openssl&#45;&gt;commit:openssl:abc123 -->
<g id="edge2" class="edge">
<title>repo:git.almalinux.org/rpms/openssl&#45;&gt;commit:openssl:abc123</title>
<path fill="none" stroke="black" d="M375.07,-176.5C400.53,-176.5 427.19,-176.5 449.31,-176.5"/>
<polygon fill="black" stroke="black" points="449.25,-180 459.25,-176.5 449.25,-173 449.25,-180"/>
<text xml:space="preserve" text-anchor="middle" x="417.88" y="-179.7" font-family="Times,serif" font-size="14.00">points_to</text>
</g>
<!-- notary:immudb:openssl:xyz789 -->
<g id="node4" class="node">
<title>notary:immudb:openssl:xyz789</title>
<polygon fill="none" stroke="black" points="779.5,-197 645,-197 645,-156 779.5,-156 779.5,-197"/>
<text xml:space="preserve" text-anchor="middle" x="712.25" y="-179.7" font-family="Times,serif" font-size="14.00">notarized_ref</text>
<text xml:space="preserve" text-anchor="middle" x="712.25" y="-163.2" font-family="Times,serif" font-size="14.00">immudb hash xyz789</text>
</g>
<!-- commit:openssl:abc123&#45;&gt;notary:immudb:openssl:xyz789 -->
<g id="edge3" class="edge">
<title>commit:openssl:abc123&#45;&gt;notary:immudb:openssl:xyz789</title>
<path fill="none" stroke="black" d="M540.77,-176.5C566.68,-176.5 601.63,-176.5 633.14,-176.5"/>
<polygon fill="black" stroke="black" points="633.06,-180 643.06,-176.5 633.06,-173 633.06,-180"/>
<text xml:space="preserve" text-anchor="middle" x="592.88" y="-179.7" font-family="Times,serif" font-size="14.00">notarized_as</text>
</g>
<!-- build:albs:123456 -->
<g id="node6" class="node">
<title>build:albs:123456</title>
<polygon fill="none" stroke="black" points="1012.25,-197 860.5,-197 860.5,-156 1012.25,-156 1012.25,-197"/>
<text xml:space="preserve" text-anchor="middle" x="936.38" y="-179.7" font-family="Times,serif" font-size="14.00">build_task</text>
<text xml:space="preserve" text-anchor="middle" x="936.38" y="-163.2" font-family="Times,serif" font-size="14.00">ALBS build task 123456</text>
</g>
<!-- notary:immudb:openssl:xyz789&#45;&gt;build:albs:123456 -->
<g id="edge4" class="edge">
<title>notary:immudb:openssl:xyz789&#45;&gt;build:albs:123456</title>
<path fill="none" stroke="black" d="M779.89,-176.5C801.54,-176.5 825.88,-176.5 848.76,-176.5"/>
<polygon fill="black" stroke="black" points="848.7,-180 858.7,-176.5 848.7,-173 848.7,-180"/>
<text xml:space="preserve" text-anchor="middle" x="820" y="-179.7" font-family="Times,serif" font-size="14.00">used_by</text>
</g>
<!-- buildenv:alma9:x86_64 -->
<g id="node5" class="node">
<title>buildenv:alma9:x86_64</title>
<polygon fill="none" stroke="black" points="1372.5,-277 1100,-277 1100,-236 1372.5,-236 1372.5,-277"/>
<text xml:space="preserve" text-anchor="middle" x="1236.25" y="-259.7" font-family="Times,serif" font-size="14.00">build_environment</text>
<text xml:space="preserve" text-anchor="middle" x="1236.25" y="-243.2" font-family="Times,serif" font-size="14.00">AlmaLinux 9 x86_64 mock build environment</text>
</g>
<!-- build:albs:123456&#45;&gt;buildenv:alma9:x86_64 -->
<g id="edge5" class="edge">
<title>build:albs:123456&#45;&gt;buildenv:alma9:x86_64</title>
<path fill="none" stroke="black" d="M1001.77,-197.49C1011.31,-200.54 1021.03,-203.62 1030.25,-206.5 1061.16,-216.14 1068.65,-219.43 1100,-227.5 1107.19,-229.35 1114.61,-231.17 1122.11,-232.96"/>
<polygon fill="black" stroke="black" points="1121.12,-236.32 1131.65,-235.19 1122.71,-229.5 1121.12,-236.32"/>
<text xml:space="preserve" text-anchor="middle" x="1056.12" y="-225.56" font-family="Times,serif" font-size="14.00">built_in</text>
</g>
<!-- srpm:openssl:3.0.7&#45;28.el9_4 -->
<g id="node7" class="node">
<title>srpm:openssl:3.0.7&#45;28.el9_4</title>
<polygon fill="none" stroke="black" points="1329.38,-218 1143.12,-218 1143.12,-177 1329.38,-177 1329.38,-218"/>
<text xml:space="preserve" text-anchor="middle" x="1236.25" y="-200.7" font-family="Times,serif" font-size="14.00">srpm</text>
<text xml:space="preserve" text-anchor="middle" x="1236.25" y="-184.2" font-family="Times,serif" font-size="14.00">openssl&#45;3.0.7&#45;28.el9_4.src.rpm</text>
</g>
<!-- build:albs:123456&#45;&gt;srpm:openssl:3.0.7&#45;28.el9_4 -->
<g id="edge6" class="edge">
<title>build:albs:123456&#45;&gt;srpm:openssl:3.0.7&#45;28.el9_4</title>
<path fill="none" stroke="black" d="M1012.54,-181.8C1048.54,-184.34 1092.24,-187.42 1131.35,-190.18"/>
<polygon fill="black" stroke="black" points="1131.06,-193.66 1141.28,-190.88 1131.55,-186.68 1131.06,-193.66"/>
<text xml:space="preserve" text-anchor="middle" x="1056.12" y="-189.57" font-family="Times,serif" font-size="14.00">produces</text>
</g>
<!-- rpm:openssl&#45;libs:3.0.7&#45;28.el9_4:x86_64 -->
<g id="node8" class="node">
<title>rpm:openssl&#45;libs:3.0.7&#45;28.el9_4:x86_64</title>
<polygon fill="none" stroke="black" points="1353.75,-159 1118.75,-159 1118.75,-118 1353.75,-118 1353.75,-159"/>
<text xml:space="preserve" text-anchor="middle" x="1236.25" y="-141.7" font-family="Times,serif" font-size="14.00">binary_rpm</text>
<text xml:space="preserve" text-anchor="middle" x="1236.25" y="-125.2" font-family="Times,serif" font-size="14.00">openssl&#45;libs&#45;3.0.7&#45;28.el9_4.x86_64.rpm</text>
</g>
<!-- build:albs:123456&#45;&gt;rpm:openssl&#45;libs:3.0.7&#45;28.el9_4:x86_64 -->
<g id="edge7" class="edge">
<title>build:albs:123456&#45;&gt;rpm:openssl&#45;libs:3.0.7&#45;28.el9_4:x86_64</title>
<path fill="none" stroke="black" d="M1012.63,-165.4C1018.59,-164.57 1024.52,-163.76 1030.25,-163 1055.09,-159.71 1081.65,-156.39 1107.14,-153.3"/>
<polygon fill="black" stroke="black" points="1107.36,-156.8 1116.87,-152.13 1106.52,-149.85 1107.36,-156.8"/>
<text xml:space="preserve" text-anchor="middle" x="1056.12" y="-166.2" font-family="Times,serif" font-size="14.00">produces</text>
</g>
<!-- test:openssl:albs:123456 -->
<g id="node9" class="node">
<title>test:openssl:albs:123456</title>
<polygon fill="none" stroke="black" points="1359.38,-100 1113.12,-100 1113.12,-59 1359.38,-59 1359.38,-100"/>
<text xml:space="preserve" text-anchor="middle" x="1236.25" y="-82.7" font-family="Times,serif" font-size="14.00">test_result</text>
<text xml:space="preserve" text-anchor="middle" x="1236.25" y="-66.2" font-family="Times,serif" font-size="14.00">ALBS test result for openssl build 123456</text>
</g>
<!-- build:albs:123456&#45;&gt;test:openssl:albs:123456 -->
<g id="edge8" class="edge">
<title>build:albs:123456&#45;&gt;test:openssl:albs:123456</title>
<path fill="none" stroke="black" d="M983.96,-155.66C998.7,-149.21 1015.1,-142.18 1030.25,-136 1060.96,-123.48 1068.23,-119 1100,-109.5 1107.2,-107.35 1114.66,-105.27 1122.2,-103.29"/>
<polygon fill="black" stroke="black" points="1123.01,-106.69 1131.83,-100.83 1121.27,-99.91 1123.01,-106.69"/>
<text xml:space="preserve" text-anchor="middle" x="1056.12" y="-139.2" font-family="Times,serif" font-size="14.00">tested_by</text>
</g>
<!-- sig:gpg:alma9 -->
<g id="node10" class="node">
<title>sig:gpg:alma9</title>
<polygon fill="none" stroke="black" points="1681.75,-277 1508.25,-277 1508.25,-236 1681.75,-236 1681.75,-277"/>
<text xml:space="preserve" text-anchor="middle" x="1595" y="-259.7" font-family="Times,serif" font-size="14.00">signature</text>
<text xml:space="preserve" text-anchor="middle" x="1595" y="-243.2" font-family="Times,serif" font-size="14.00">AlmaLinux 9 GPG signature</text>
</g>
<!-- rpm:openssl&#45;libs:3.0.7&#45;28.el9_4:x86_64&#45;&gt;sig:gpg:alma9 -->
<g id="edge9" class="edge">
<title>rpm:openssl&#45;libs:3.0.7&#45;28.el9_4:x86_64&#45;&gt;sig:gpg:alma9</title>
<path fill="none" stroke="black" d="M1354.01,-157.66C1360.52,-160.76 1366.74,-164.35 1372.5,-168.5 1385.12,-177.59 1378.16,-189.04 1390.5,-198.5 1421.02,-221.89 1460.6,-235.85 1496.73,-244.18"/>
<polygon fill="black" stroke="black" points="1495.83,-247.57 1506.34,-246.27 1497.31,-240.73 1495.83,-247.57"/>
<text xml:space="preserve" text-anchor="middle" x="1437" y="-242.68" font-family="Times,serif" font-size="14.00">signed_as</text>
</g>
<!-- repo:alma9:baseos:x86_64 -->
<g id="node11" class="node">
<title>repo:alma9:baseos:x86_64</title>
<polygon fill="none" stroke="black" points="1685.5,-218 1504.5,-218 1504.5,-177 1685.5,-177 1685.5,-218"/>
<text xml:space="preserve" text-anchor="middle" x="1595" y="-200.7" font-family="Times,serif" font-size="14.00">repository_release</text>
<text xml:space="preserve" text-anchor="middle" x="1595" y="-184.2" font-family="Times,serif" font-size="14.00">AlmaLinux 9 BaseOS x86_64</text>
</g>
<!-- rpm:openssl&#45;libs:3.0.7&#45;28.el9_4:x86_64&#45;&gt;repo:alma9:baseos:x86_64 -->
<g id="edge10" class="edge">
<title>rpm:openssl&#45;libs:3.0.7&#45;28.el9_4:x86_64&#45;&gt;repo:alma9:baseos:x86_64</title>
<path fill="none" stroke="black" d="M1354.06,-157.82C1398.93,-165.24 1449.72,-173.64 1492.98,-180.79"/>
<polygon fill="black" stroke="black" points="1492.16,-184.21 1502.6,-182.38 1493.3,-177.3 1492.16,-184.21"/>
<text xml:space="preserve" text-anchor="middle" x="1437" y="-181.62" font-family="Times,serif" font-size="14.00">released_to</text>
</g>
<!-- errata:ALSA&#45;2026&#45;0001 -->
<g id="node12" class="node">
<title>errata:ALSA&#45;2026&#45;0001</title>
<polygon fill="none" stroke="black" points="1652.12,-159 1537.88,-159 1537.88,-118 1652.12,-118 1652.12,-159"/>
<text xml:space="preserve" text-anchor="middle" x="1595" y="-141.7" font-family="Times,serif" font-size="14.00">errata</text>
<text xml:space="preserve" text-anchor="middle" x="1595" y="-125.2" font-family="Times,serif" font-size="14.00">ALSA&#45;2026&#45;0001</text>
</g>
<!-- rpm:openssl&#45;libs:3.0.7&#45;28.el9_4:x86_64&#45;&gt;errata:ALSA&#45;2026&#45;0001 -->
<g id="edge11" class="edge">
<title>rpm:openssl&#45;libs:3.0.7&#45;28.el9_4:x86_64&#45;&gt;errata:ALSA&#45;2026&#45;0001</title>
<path fill="none" stroke="black" d="M1354.06,-138.5C1411.07,-138.5 1477.63,-138.5 1526.17,-138.5"/>
<polygon fill="black" stroke="black" points="1525.96,-142 1535.96,-138.5 1525.96,-135 1525.96,-142"/>
<text xml:space="preserve" text-anchor="middle" x="1437" y="-141.7" font-family="Times,serif" font-size="14.00">fixes</text>
</g>
<!-- sbom:openssl:cyclonedx -->
<g id="node14" class="node">
<title>sbom:openssl:cyclonedx</title>
<polygon fill="none" stroke="black" points="1688.5,-100 1501.5,-100 1501.5,-59 1688.5,-59 1688.5,-100"/>
<text xml:space="preserve" text-anchor="middle" x="1595" y="-82.7" font-family="Times,serif" font-size="14.00">sbom</text>
<text xml:space="preserve" text-anchor="middle" x="1595" y="-66.2" font-family="Times,serif" font-size="14.00">CycloneDX SBOM for openssl</text>
</g>
<!-- rpm:openssl&#45;libs:3.0.7&#45;28.el9_4:x86_64&#45;&gt;sbom:openssl:cyclonedx -->
<g id="edge13" class="edge">
<title>rpm:openssl&#45;libs:3.0.7&#45;28.el9_4:x86_64&#45;&gt;sbom:openssl:cyclonedx</title>
<path fill="none" stroke="black" d="M1354.06,-119.18C1397.9,-111.93 1447.39,-103.75 1489.99,-96.7"/>
<polygon fill="black" stroke="black" points="1490.45,-100.17 1499.74,-95.09 1489.31,-93.27 1490.45,-100.17"/>
<text xml:space="preserve" text-anchor="middle" x="1437" y="-115.73" font-family="Times,serif" font-size="14.00">described_by</text>
</g>
<!-- external:zlib -->
<g id="node15" class="node">
<title>external:zlib</title>
<polygon fill="none" stroke="black" points="1670.5,-41 1519.5,-41 1519.5,0 1670.5,0 1670.5,-41"/>
<text xml:space="preserve" text-anchor="middle" x="1595" y="-23.7" font-family="Times,serif" font-size="14.00">external_package</text>
<text xml:space="preserve" text-anchor="middle" x="1595" y="-7.2" font-family="Times,serif" font-size="14.00">zlib runtime dependency</text>
</g>
<!-- rpm:openssl&#45;libs:3.0.7&#45;28.el9_4:x86_64&#45;&gt;external:zlib -->
<g id="edge14" class="edge">
<title>rpm:openssl&#45;libs:3.0.7&#45;28.el9_4:x86_64&#45;&gt;external:zlib</title>
<path fill="none" stroke="black" d="M1354.1,-120.39C1360.59,-117.29 1366.78,-113.68 1372.5,-109.5 1385.52,-99.98 1377.8,-87.93 1390.5,-78 1424,-51.81 1468.85,-37.55 1507.92,-29.78"/>
<polygon fill="black" stroke="black" points="1508.36,-33.26 1517.55,-27.99 1507.08,-26.38 1508.36,-33.26"/>
<text xml:space="preserve" text-anchor="middle" x="1437" y="-81.2" font-family="Times,serif" font-size="14.00">requires_runtime</text>
</g>
<!-- cve:CVE&#45;2026&#45;0001 -->
<g id="node13" class="node">
<title>cve:CVE&#45;2026&#45;0001</title>
<polygon fill="none" stroke="black" points="1856.75,-159 1750.75,-159 1750.75,-118 1856.75,-118 1856.75,-159"/>
<text xml:space="preserve" text-anchor="middle" x="1803.75" y="-141.7" font-family="Times,serif" font-size="14.00">cve</text>
<text xml:space="preserve" text-anchor="middle" x="1803.75" y="-125.2" font-family="Times,serif" font-size="14.00">CVE&#45;2026&#45;0001</text>
</g>
<!-- errata:ALSA&#45;2026&#45;0001&#45;&gt;cve:CVE&#45;2026&#45;0001 -->
<g id="edge12" class="edge">
<title>errata:ALSA&#45;2026&#45;0001&#45;&gt;cve:CVE&#45;2026&#45;0001</title>
<path fill="none" stroke="black" d="M1652.5,-138.5C1679.4,-138.5 1711.67,-138.5 1739.4,-138.5"/>
<polygon fill="black" stroke="black" points="1739.06,-142 1749.06,-138.5 1739.06,-135 1739.06,-142"/>
<text xml:space="preserve" text-anchor="middle" x="1719.62" y="-141.7" font-family="Times,serif" font-size="14.00">fixes</text>
</g>
</g>
</svg>
